<svg xmlns="http://www.w3.org/2000/svg" viewBox="0 0 1024 1024" width="1024" height="1024"><defs><linearGradient id="g" x1="0%" y1="100%" x2="100%" y2="0%"><stop offset="0" stop-color="#004E8F"/><stop offset="0.5" stop-color="#0B81D0"/><stop offset="1" stop-color="#2FA6F5"/></linearGradient></defs><rect width="1024" height="1024" fill="#01345A"/><g transform="translate(-1606.804,-332.312) scale(2.577933)"><path fill="#FFFFFF" fill-rule="evenodd" d="M802.13 244.29 L841.67 244.29 L913.26 410.74 L730.54 410.74 Z M821.90 281.77 L874.15 410.74 L769.65 410.74 Z"/><path fill="url(#g)" d="M851.69 355.31 C861.21 349.54 870.73 342.45 880.26 334.01 L913.26 410.74 L874.15 410.74 Z"/><path fill="none" stroke="#01345A" stroke-width="5.60" stroke-linejoin="round" d="M789.60 369.80 Q794.6 374.3 802.00 373.49 C830.87 369.79 859.73 354.24 888.60 326.27 L901.60 339.40 L912.60 279.80 L855.60 296.80 L869.80 309.60 C847.20 330.85 824.60 344.00 802.00 349.38 L797.90 350.20 Z"/><path fill="url(#g)" d="M789.60 369.80 Q794.6 374.3 802.00 373.49 C830.87 369.79 859.73 354.24 888.60 326.27 L901.60 339.40 L912.60 279.80 L855.60 296.80 L869.80 309.60 C847.20 330.85 824.60 344.00 802.00 349.38 L797.90 350.20 Z"/></g></svg>